HIERARCHY
ROOT Hips
{
  OFFSET 5.84602e-005 68.8428 3.50346
  CHANNELS 6 Xposition Yposition Zposition Zrotation Xrotation Yrotation
  JOINT Spine
  {
    OFFSET 0 8.597 -4.6522
    CHANNELS 3 Zrotation Xrotation Yrotation
    JOINT Spine1
    {
      OFFSET 0 7.8454 0.4098
      CHANNELS 3 Zrotation Xrotation Yrotation
      JOINT Spine2
      {
        OFFSET 0 9.7078 -2.1609
        CHANNELS 3 Zrotation Xrotation Yrotation
        JOINT Neck
        {
          OFFSET 0 21.8761 -0.4549
          CHANNELS 3 Zrotation Xrotation Yrotation
          JOINT Head
          {
            OFFSET 0 12.3537 3.3602
            CHANNELS 3 Zrotation Xrotation Yrotation
            End Site
            {
              OFFSET 0.0001 18.9506 0.5657
            }
          }
        }
        JOINT LeftShoulder
        {
          OFFSET 2.2086 21.1115 7.2329
          CHANNELS 3 Zrotation Xrotation Yrotation
          JOINT LeftArm
          {
            OFFSET 13.1193 3.0282 -4.8998
            CHANNELS 3 Zrotation Xrotation Yrotation
            JOINT LeftForeArm
            {
              OFFSET 27.4081 -0.0973053 -0.2375
              CHANNELS 3 Zrotation Xrotation Yrotation
              JOINT LeftHand
              {
                OFFSET 22.8641 0.0662994 -0.1369
                CHANNELS 3 Zrotation Xrotation Yrotation
                JOINT LeftHandIndex1
                {
                  OFFSET 8.8614 0.775009 2.4612
                  CHANNELS 3 Zrotation Xrotation Yrotation
                  JOINT LeftHandIndex2
                  {
                    OFFSET 3.3146 -0.808304 0.5841
                    CHANNELS 3 Zrotation Xrotation Yrotation
                    JOINT LeftHandIndex3
                    {
                      OFFSET 2.2628 -0.552002 0.3989
                      CHANNELS 3 Zrotation Xrotation Yrotation
                      End Site
                      {
                        OFFSET 1.6102 -0.4807 0.2612
                      }
                    }
                  }
                }
                JOINT LeftHandMiddle1
                {
                  OFFSET 8.9937 0.895004 0.2143
                  CHANNELS 3 Zrotation Xrotation Yrotation
                  JOINT LeftHandMiddle2
                  {
                    OFFSET 4.0984 0.0113983 -0.0242
                    CHANNELS 3 Zrotation Xrotation Yrotation
                    JOINT LeftHandMiddle3
                    {
                      OFFSET 2.2716 0.00689697 -0.0138001
                      CHANNELS 3 Zrotation Xrotation Yrotation
                      End Site
                      {
                        OFFSET 2.0404 -0.1441 0.0027
                      }
                    }
                  }
                }
                JOINT LeftHandRing1
                {
                  OFFSET 8.5234 0.597198 -2.0164
                  CHANNELS 3 Zrotation Xrotation Yrotation
                  JOINT LeftHandRing2
                  {
                    OFFSET 3.7188 -0.188293 -0.2328
                    CHANNELS 3 Zrotation Xrotation Yrotation
                    JOINT LeftHandRing3
                    {
                      OFFSET 2.1191 -0.106598 -0.1332
                      CHANNELS 3 Zrotation Xrotation Yrotation
                      End Site
                      {
                        OFFSET 1.8737 -0.2304 -0.0886
                      }
                    }
                  }
                }
                JOINT LeftHandPinky1
                {
                  OFFSET 7.9094 -0.601089 -3.4825
                  CHANNELS 3 Zrotation Xrotation Yrotation
                  JOINT LeftHandPinky2
                  {
                    OFFSET 2.2874 -0.477005 -0.6314
                    CHANNELS 3 Zrotation Xrotation Yrotation
                    JOINT LeftHandPinky3
                    {
                      OFFSET 1.6774 -0.349396 -0.4633
                      CHANNELS 3 Zrotation Xrotation Yrotation
                      End Site
                      {
                        OFFSET 1.4888 -0.4091 -0.3416
                      }
                    }
                  }
                }
                JOINT LeftHandThumb1
                {
                  OFFSET 1.833 -1.3875 1.3896
                  CHANNELS 3 Zrotation Xrotation Yrotation
                  JOINT LeftHandThumb2
                  {
                    OFFSET 3.4129 -1.121 2.5732
                    CHANNELS 3 Zrotation Xrotation Yrotation
                    JOINT LeftHandThumb3
                    {
                      OFFSET 2.2474 -0.804199 1.6192
                      CHANNELS 3 Zrotation Xrotation Yrotation
                      End Site
                      {
                        OFFSET 1.6527 -0.5689 1.1317
                      }
                    }
                  }
                }
              }
            }
          }
        }
        JOINT RightShoulder
        {
          OFFSET -2.2086 21.1115 7.2329
          CHANNELS 3 Zrotation Xrotation Yrotation
          JOINT RightArm
          {
            OFFSET -13.1216 3.0287 -4.9007
            CHANNELS 3 Zrotation Xrotation Yrotation
            JOINT RightForeArm
            {
              OFFSET -27.4081 -0.0973053 -0.2375
              CHANNELS 3 Zrotation Xrotation Yrotation
              JOINT RightHand
              {
                OFFSET -22.8641 0.0664063 -0.1369
                CHANNELS 3 Zrotation Xrotation Yrotation
                JOINT RightHandIndex1
                {
                  OFFSET -8.8614 0.774994 2.4612
                  CHANNELS 3 Zrotation Xrotation Yrotation
                  JOINT RightHandIndex2
                  {
                    OFFSET -3.3146 -0.808304 0.5841
                    CHANNELS 3 Zrotation Xrotation Yrotation
                    JOINT RightHandIndex3
                    {
                      OFFSET -2.2628 -0.552002 0.3989
                      CHANNELS 3 Zrotation Xrotation Yrotation
                      End Site
                      {
                        OFFSET -1.6102 -0.4807 0.2612
                      }
                    }
                  }
                }
                JOINT RightHandMiddle1
                {
                  OFFSET -8.9937 0.894989 0.2143
                  CHANNELS 3 Zrotation Xrotation Yrotation
                  JOINT RightHandMiddle2
                  {
                    OFFSET -4.0984 0.0113983 -0.0242
                    CHANNELS 3 Zrotation Xrotation Yrotation
                    JOINT RightHandMiddle3
                    {
                      OFFSET -2.2716 0.00691223 -0.0138001
                      CHANNELS 3 Zrotation Xrotation Yrotation
                      End Site
                      {
                        OFFSET -2.0404 -0.1441 0.0027
                      }
                    }
                  }
                }
                JOINT RightHandRing1
                {
                  OFFSET -8.5234 0.597198 -2.0164
                  CHANNELS 3 Zrotation Xrotation Yrotation
                  JOINT RightHandRing2
                  {
                    OFFSET -3.7188 -0.188309 -0.2328
                    CHANNELS 3 Zrotation Xrotation Yrotation
                    JOINT RightHandRing3
                    {
                      OFFSET -2.1191 -0.106598 -0.1332
                      CHANNELS 3 Zrotation Xrotation Yrotation
                      End Site
                      {
                        OFFSET -1.8737 -0.2304 -0.0886
                      }
                    }
                  }
                }
                JOINT RightHandPinky1
                {
                  OFFSET -7.9094 -0.601105 -3.4825
                  CHANNELS 3 Zrotation Xrotation Yrotation
                  JOINT RightHandPinky2
                  {
                    OFFSET -2.2874 -0.477005 -0.6314
                    CHANNELS 3 Zrotation Xrotation Yrotation
                    JOINT RightHandPinky3
                    {
                      OFFSET -1.6774 -0.349396 -0.4633
                      CHANNELS 3 Zrotation Xrotation Yrotation
                      End Site
                      {
                        OFFSET -1.4888 -0.4091 -0.3416
                      }
                    }
                  }
                }
                JOINT RightHandThumb1
                {
                  OFFSET -1.833 -1.38751 1.3896
                  CHANNELS 3 Zrotation Xrotation Yrotation
                  JOINT RightHandThumb2
                  {
                    OFFSET -3.41299 -1.12099 2.5732
                    CHANNELS 3 Zrotation Xrotation Yrotation
                    JOINT RightHandThumb3
                    {
                      OFFSET -2.24741 -0.804108 1.6192
                      CHANNELS 3 Zrotation Xrotation Yrotation
                      End Site
                      {
                        OFFSET -1.6527 -0.5689 1.1317
                      }
                    }
                  }
                }
              }
            }
          }
        }
      }
    }
  }
  JOINT RightUpLeg
  {
    OFFSET -9.1966 3.8861 -0.7581
    CHANNELS 3 Zrotation Xrotation Yrotation
    JOINT RightLeg
    {
      OFFSET -0.7359 -41.0265 0
      CHANNELS 3 Zrotation Xrotation Yrotation
      JOINT RightFoot
      {
        OFFSET 0 -40.2855 0
        CHANNELS 3 Zrotation Xrotation Yrotation
        JOINT RightToeBase
        {
          OFFSET 0 -5.6122 11.7359
          CHANNELS 3 Zrotation Xrotation Yrotation
          End Site
          {
            OFFSET 0 0 7.8731
          }
        }
      }
    }
  }
  JOINT LeftUpLeg
  {
    OFFSET 9.1965 3.8864 -0.7581
    CHANNELS 3 Zrotation Xrotation Yrotation
    JOINT LeftLeg
    {
      OFFSET 0.7359 -41.0268 0
      CHANNELS 3 Zrotation Xrotation Yrotation
      JOINT LeftFoot
      {
        OFFSET 0 -40.2855 0
        CHANNELS 3 Zrotation Xrotation Yrotation
        JOINT LeftToeBase
        {
          OFFSET 0 -5.6122 11.7359
          CHANNELS 3 Zrotation Xrotation Yrotation
          End Site
          {
            OFFSET 0 0 7.8731
          }
        }
      }
    }
  }
}
MOTION
Frames:	6
Frame Time:	0.0333333
-0.782181 12.1236 21.3786 5.995e-016 47.3461 180 -0.337861 14.5655 -0.0111296 -0.709014 29.131 0.0738102 -0.709015 29.131 0.0738104 -10.1763 -32.2072 -5.6678 -11.138 -11.399 -26.8642 10.9352 9.26746 -20.6314 -54.6352 6.47104 -31.5278 -6.72644 0.939163 0.152914 -8.13108 -5.83696 -14.8676 -3.18055e-015 3.18055e-014 7.95139e-016 -1.01679e-006 2.33835e-006 2.15867e-006 -1.7248e-006 1.7968e-007 4.49702e-006 -3.18055e-015 3.18055e-014 7.95139e-016 -0.014622 -9.20106e-005 2.76801e-006 -1.72483e-006 1.79106e-007 4.49704e-006 -3.18055e-015 3.18055e-014 7.95139e-016 -0.0187205 -0.00116861 6.21721e-005 -1.7248e-006 1.78943e-007 4.49707e-006 -3.18055e-015 3.18055e-014 7.95139e-016 -0.0122409 -0.00323686 0.000673017 -1.7247e-006 1.79201e-007 4.49709e-006 -3.18055e-015 3.18055e-014 7.95139e-016 -1.01679e-006 2.33835e-006 2.15867e-006 -1.7248e-006 1.7968e-007 4.49702e-006 -10.3579 9.97407 21.0706 53.8644 6.02806 31.0464 6.30789 0.947516 -0.153349 8.22694 -6.74746 15.3818 -1.38287e-006 -2.40766e-006 1.27068e-006 -9.63594e-007 -2.4166e-006 2.10028e-006 -4.81797e-007 -1.2083e-006 1.05014e-006 -1.38287e-006 -2.40766e-006 1.27068e-006 0.0150209 -9.09524e-005 3.6161e-006 -4.81751e-007 -1.20816e-006 1.0503e-006 -1.38287e-006 -2.40766e-006 1.27068e-006 0.0189612 -0.00119395 -6.21468e-005 -4.81728e-007 -1.20813e-006 1.05034e-006 -1.38287e-006 -2.40766e-006 1.27068e-006 0.0122257 -0.00323711 -0.000670751 4.18192e-007 -8.55523e-009 8.29646e-007 -1.38287e-006 -2.40766e-006 1.27068e-006 -9.63594e-007 -2.4166e-006 2.10028e-006 -4.81797e-007 -1.2083e-006 1.05014e-006 -46.7171 -26.5598 -81.7486 -7.62831 49.7379 59.5789 -15.3088 28.0123 -32.007 -1.76556e-031 1.59028e-015 6.36111e-015 46.7003 -26.5614 81.7304 7.60619 49.7367 -59.5634 15.2997 28.0099 31.9994 -1.89499e-006 8.7574e-007 4.39769e-007 
-0.782184 12.0649 21.5048 4.84379e-016 46.9109 180 -0.338052 14.5889 -0.0107059 -0.709662 29.1777 0.0749519 -0.709662 29.1777 0.0749518 -10.0872 -31.7389 -5.56249 -10.821 -11.2359 -26.7347 11.0432 9.03009 -20.676 -54.6352 6.47103 -31.5278 -6.72644 0.939169 0.15291 -7.88838 -6.04841 -15.163 -1.01843e-006 2.33971e-006 2.15715e-006 -5.09216e-007 1.16985e-006 1.07857e-006 1.59028e-015 3.18055e-015 -7.95139e-016 -1.01843e-006 2.33971e-006 2.15715e-006 -0.0146483 -8.70329e-005 1.96192e-006 -1.59028e-015 -6.36111e-015 7.95139e-016 -1.01843e-006 2.33971e-006 2.15715e-006 -0.0187463 -0.0011769 6.53519e-005 -6.75997e-007 1.04845e-006 4.42893e-007 -1.01843e-006 2.33971e-006 2.15715e-006 -0.01227 -0.00324773 0.00067614 1.59028e-015 -3.18055e-015 -0 -1.01843e-006 2.33971e-006 2.15715e-006 -5.09216e-007 1.16985e-006 1.07857e-006 1.59028e-015 3.18055e-015 -7.95139e-016 -10.4472 9.75912 21.1309 53.8644 6.02806 31.0464 6.30786 0.947512 -0.153357 7.9906 -6.98876 15.6926 -4.82696e-007 -1.20872e-006 1.0496e-006 -1.44809e-006 -3.62616e-006 3.14879e-006 -4.82696e-007 -1.20872e-006 1.0496e-006 -4.82696e-007 -1.20872e-006 1.0496e-006 0.0149653 -9.12906e-005 2.45113e-006 -4.8265e-007 -1.20858e-006 1.04976e-006 -4.82696e-007 -1.20872e-006 1.0496e-006 0.0190466 -0.00119818 -5.64059e-005 -4.82627e-007 -1.20855e-006 1.0498e-006 -4.82696e-007 -1.20872e-006 1.0496e-006 0.0122829 -0.00325856 -0.000679965 -4.82622e-007 -1.20862e-006 1.04974e-006 -4.82696e-007 -1.20872e-006 1.0496e-006 -1.44809e-006 -3.62616e-006 3.14879e-006 -4.82696e-007 -1.20872e-006 1.0496e-006 -46.7139 -26.9249 -81.8891 -7.47136 49.4912 59.4708 -15.1344 28.1515 -32.1719 1.13686e-006 5.25737e-007 -2.63853e-007 46.6967 -26.9265 81.8704 7.44874 49.4899 -59.4547 15.1251 28.1491 32.1641 2.18181e-007 -2.15992e-007 1.76083e-007 
-0.782186 12.0064 21.6315 3.71115e-016 46.4758 180 -0.338243 14.6123 -0.0102813 -0.710311 29.2244 0.076095 -0.710311 29.2244 0.076095 -9.99953 -31.2696 -5.4584 -10.5043 -11.072 -26.6061 11.151 8.79264 -20.72 -54.6352 6.47103 -31.5278 -6.72643 0.939157 0.152917 -7.64672 -6.26108 -15.4577 -7.95139e-016 2.8625e-014 2.38542e-015 -5.10052e-007 1.17052e-006 1.07782e-006 7.95139e-016 -3.18055e-015 7.95139e-016 -7.95139e-016 2.8625e-014 2.38542e-015 -0.0145851 -9.00237e-005 -1.48989e-006 -1.7765e-008 -3.20522e-006 1.89295e-006 -7.95139e-016 2.8625e-014 2.38542e-015 -0.018739 -0.00117536 5.97932e-005 -2.38542e-015 2.22639e-014 1.59028e-015 -7.95139e-016 2.8625e-014 2.38542e-015 -0.0122878 -0.00325165 0.000675624 2.38542e-015 3.18055e-015 -2.38542e-015 -7.95139e-016 2.8625e-014 2.38542e-015 -5.10052e-007 1.17052e-006 1.07782e-006 7.95139e-016 -3.18055e-015 7.95139e-016 -10.5362 9.54408 21.1908 53.8644 6.02806 31.0464 6.30786 0.947525 -0.153358 7.75544 -7.23134 16.0024 -1.59028e-015 6.36111e-015 -7.95139e-016 -1.59028e-015 9.54166e-015 -0 -3.97569e-015 9.54166e-015 -1.59028e-015 -1.59028e-015 6.36111e-015 -7.95139e-016 0.0150093 -9.4819e-005 -5.45495e-006 8.82781e-032 6.36111e-015 -7.95139e-016 -1.59028e-015 6.36111e-015 -7.95139e-016 0.0190125 -0.00119588 -6.1741e-005 -7.95139e-016 -3.18055e-015 -1.59028e-015 -1.59028e-015 6.36111e-015 -7.95139e-016 0.0122551 -0.00324668 -0.00067979 -1.59028e-015 0 -3.18055e-015 -1.59028e-015 6.36111e-015 -7.95139e-016 -1.59028e-015 9.54166e-015 -0 -3.97569e-015 9.54166e-015 -1.59028e-015 -46.7118 -27.2901 -82.03 -7.31596 49.2442 59.3644 -14.9592 28.2904 -32.3376 -8.70714e-007 -2.47289e-006 -3.10278e-008 46.694 -27.2916 82.0107 7.29279 49.2429 -59.3478 14.9497 28.2879 32.3296 5.97565e-007 -3.91006e-007 8.83121e-008 
-0.782189 11.9481 21.7586 2.59661e-016 46.0408 180 -0.338434 14.6356 -0.00985621 -0.710961 29.2711 0.0772399 -0.710962 29.2711 0.0772401 -9.91294 -30.7994 -5.35544 -10.1878 -10.9072 -26.4784 11.2585 8.55512 -20.7636 -54.6352 6.47103 -31.5278 -6.72644 0.939161 0.152912 -7.40607 -6.47498 -15.7515 -1.59028e-015 1.27222e-014 1.59028e-015 -1.72315e-006 1.88158e-007 4.49649e-006 -1.0218e-006 2.34232e-006 2.15417e-006 -1.59028e-015 1.27222e-014 1.59028e-015 -0.0146108 -8.96711e-005 9.85659e-006 -1.02171e-006 2.34205e-006 2.15446e-006 -1.59028e-015 1.27222e-014 1.59028e-015 -0.0187354 -0.00117694 6.44024e-005 -1.02166e-006 2.34198e-006 2.15456e-006 -1.59028e-015 1.27222e-014 1.59028e-015 -0.0122333 -0.00323092 0.000670791 -1.02165e-006 2.34212e-006 2.15444e-006 -1.59028e-015 1.27222e-014 1.59028e-015 -1.72315e-006 1.88158e-007 4.49649e-006 -1.0218e-006 2.34232e-006 2.15417e-006 -10.6249 9.32895 21.2503 53.8644 6.02807 31.0464 6.30789 0.947529 -0.15334 7.52153 -7.47513 16.3114 1.65768e-006 3.21934e-007 -4.51615e-006 1.45355e-006 3.62856e-006 -3.14566e-006 7.64908e-007 5.72567e-006 -7.26619e-007 1.65768e-006 3.21934e-007 -4.51615e-006 0.0149906 -8.68578e-005 -5.72777e-006 7.64645e-007 5.72557e-006 -7.27369e-007 1.65768e-006 3.21934e-007 -4.51615e-006 0.0190665 -0.00119577 -6.83202e-005 7.64564e-007 5.72557e-006 -7.27579e-007 1.65768e-006 3.21934e-007 -4.51615e-006 0.0122867 -0.00324794 -0.000687464 7.64638e-007 5.72565e-006 -7.27243e-007 1.65768e-006 3.21934e-007 -4.51615e-006 1.45355e-006 3.62856e-006 -3.14566e-006 7.64908e-007 5.72567e-006 -7.26619e-007 -46.7105 -27.6552 -82.1712 -7.16205 48.9969 59.2595 -14.7833 28.4288 -32.5039 -1.13688e-006 -5.25651e-007 2.63936e-007 46.6922 -27.6567 82.1514 7.13833 48.9954 -59.2424 14.7736 28.4263 32.4958 5.40461e-007 1.47528e-006 3.18397e-007 
-0.782192 11.8898 21.8861 1.49959e-016 45.6058 180 -0.338623 14.6589 -0.00943127 -0.711612 29.3177 0.0783856 -0.711613 29.3177 0.0783859 -9.82752 -30.3283 -5.25361 -9.87159 -10.7416 -26.3516 11.3658 8.31752 -20.8067 -54.6352 6.47105 -31.5278 -6.72641 0.939152 0.152936 -7.16645 -6.69006 -16.0445 -7.95139e-016 -1.27222e-014 2.38542e-015 -5.11757e-007 1.17179e-006 1.07635e-006 -2.38542e-015 -6.36111e-015 1.59028e-015 -7.95139e-016 -1.27222e-014 2.38542e-015 -0.0145734 -9.23398e-005 6.32669e-006 -1.59028e-015 3.18055e-015 -1.59028e-015 -7.95139e-016 -1.27222e-014 2.38542e-015 -0.0187611 -0.00117607 5.07755e-005 7.95139e-016 0 -2.38542e-015 -7.95139e-016 -1.27222e-014 2.38542e-015 -0.0122324 -0.00323944 0.000676111 -7.95139e-016 6.36111e-015 -1.59028e-015 -7.95139e-016 -1.27222e-014 2.38542e-015 -5.11757e-007 1.17179e-006 1.07635e-006 -2.38542e-015 -6.36111e-015 1.59028e-015 -10.7133 9.11373 21.3095 53.8644 6.02806 31.0464 6.3079 0.947529 -0.153332 7.28882 -7.72012 16.6195 2.10371e-006 3.14998e-007 -3.713e-006 -4.80051e-006 3.16036e-006 -3.22387e-006 1.90269e-006 3.62099e-006 -2.34125e-006 2.10371e-006 3.14998e-007 -3.713e-006 0.0149657 -9.06036e-005 -9.12361e-006 1.9012e-006 3.6207e-006 -2.34173e-006 2.10371e-006 3.14998e-007 -3.713e-006 0.0189386 -0.00118476 -5.86356e-005 1.90078e-006 3.62072e-006 -2.34187e-006 2.10371e-006 3.14998e-007 -3.713e-006 0.0122964 -0.00325176 -0.000678584 9.70737e-007 2.41959e-006 -2.09638e-006 2.10371e-006 3.14998e-007 -3.713e-006 -4.80051e-006 3.16036e-006 -3.22387e-006 1.90269e-006 3.62099e-006 -2.34125e-006 -46.7104 -28.0203 -82.3129 -7.00957 48.7494 59.1561 -14.6067 28.5668 -32.671 6.36111e-015 1.59028e-015 9.54166e-015 46.6915 -28.0218 82.2926 6.98535 48.7478 -59.1385 14.5968 28.5643 32.6627 1.13704e-006 -5.25251e-007 -2.64025e-007 
-0.782194 11.8318 22.014 4.19684e-017 45.1708 180 -0.338815 14.6823 -0.00900599 -0.712265 29.3644 0.0795327 -0.712265 29.3644 0.0795329 -9.74373 -29.8562 -5.15303 -9.55567 -10.5752 -26.2257 11.4728 8.07986 -20.8493 -54.6352 6.47104 -31.5278 -6.72643 0.939172 0.152912 -6.92792 -6.9063 -16.3366 5.12626e-007 -1.1724e-006 -1.07563e-006 -1.59028e-015 -9.54166e-015 2.38542e-015 5.12626e-007 -1.1724e-006 -1.07563e-006 5.12626e-007 -1.1724e-006 -1.07563e-006 -0.0145818 -8.80504e-005 -1.68502e-006 5.12581e-007 -1.17227e-006 -1.07578e-006 5.12626e-007 -1.1724e-006 -1.07563e-006 -0.018738 -0.00118019 5.88678e-005 5.12557e-007 -1.17223e-006 -1.07583e-006 5.12626e-007 -1.1724e-006 -1.07563e-006 -0.0122748 -0.00325021 0.000672833 5.12551e-007 -1.1723e-006 -1.07577e-006 5.12626e-007 -1.1724e-006 -1.07563e-006 -1.59028e-015 -9.54166e-015 2.38542e-015 5.12626e-007 -1.1724e-006 -1.07563e-006 -10.8015 8.89844 21.3683 53.8644 6.02807 31.0464 6.30791 0.947535 -0.153345 7.05738 -7.96629 16.9267 -1.59028e-015 1.27222e-014 1.59028e-015 1.59028e-015 1.90833e-014 1.59028e-015 -7.95139e-016 1.59028e-014 -7.95139e-016 -1.59028e-015 1.27222e-014 1.59028e-015 0.0149949 -9.53179e-005 -6.16548e-007 -2.38542e-015 -3.18055e-015 -7.95139e-016 -1.59028e-015 1.27222e-014 1.59028e-015 0.019021 -0.00119334 -5.63405e-005 -7.95139e-016 -6.36111e-015 -2.38542e-015 -1.59028e-015 1.27222e-014 1.59028e-015 0.0122727 -0.00324785 -0.000676131 -7.95139e-016 6.36111e-015 7.95139e-016 -1.59028e-015 1.27222e-014 1.59028e-015 1.59028e-015 1.90833e-014 1.59028e-015 -7.95139e-016 1.59028e-014 -7.95139e-016 -46.7112 -28.3854 -82.455 -6.85857 48.5016 59.0543 -14.4292 28.7045 -32.8388 0 6.36111e-015 -0 46.6919 -28.3868 82.4342 6.83385 48.4999 -59.0362 14.4192 28.7019 32.8304 -6.03324e-007 2.01535e-006 -3.06706e-006 
